<svg width="16" height="16" viewBox="0 0 16 16" fill="none" xmlns="http://www.w3.org/2000/svg">
<path d="M10.643 4.90392L14.7246 5.52493C15.0626 5.57473 15.3466 5.82079 15.4546 6.15767C15.5625 6.49747 15.4744 6.86656 15.2302 7.11848L12.2705 10.1122L12.9693 14.4066C13.0261 14.7582 12.8869 15.1155 12.6028 15.3235C12.3217 15.5315 11.9496 15.5579 11.6457 15.3909L7.99865 13.3843L4.35449 15.3909C4.04773 15.5579 3.67565 15.5315 3.39445 15.3235C3.11326 15.1155 2.97124 14.7582 3.03089 14.4066L3.72961 10.1122L0.769408 7.11848C0.524854 6.86656 0.43794 6.49747 0.545305 6.15767C0.652386 5.82079 0.935568 5.57473 1.27613 5.52493L5.35429 4.90392L7.18347 1.02754C7.33401 0.70485 7.65213 0.5 7.99865 0.5C8.34801 0.5 8.66613 0.70485 8.81667 1.02754L10.643 4.90392Z" fill="#FFC831"/>
</svg>
